<svg width="13" height="16" viewBox="0 0 13 16" fill="none" xmlns="http://www.w3.org/2000/svg">
<path d="M8.96307 4.81534H12.3295C12.3011 2.09517 10.1349 0.255681 6.75426 0.255681C3.4304 0.255681 1.03693 2.06676 1.05824 4.77273C1.05114 6.98153 2.59943 8.22443 5.11364 8.79972L6.63352 9.15483C8.23153 9.52415 8.94886 9.95739 8.96307 10.7741C8.94886 11.6619 8.1179 12.2798 6.70455 12.2798C5.14915 12.2798 4.12642 11.5554 4.0483 10.1562H0.681818C0.724432 13.5582 3.08949 15.1847 6.74716 15.1847C10.3693 15.1847 12.5142 13.544 12.5284 10.7812C12.5142 8.45881 10.9446 7.03835 8.07528 6.40625L6.82528 6.12216C5.50426 5.83807 4.66619 5.39773 4.6946 4.53125C4.7017 3.7358 5.38352 3.16051 6.74716 3.16051C8.1179 3.16051 8.87074 3.77841 8.96307 4.81534Z" fill="black"/>
</svg>
